<?xml version="1.0" encoding="utf-8"?>
<!-- Generator: Adobe Illustrator 16.0.0, SVG Export Plug-In . SVG Version: 6.00 Build 0)  -->
<!DOCTYPE svg PUBLIC "-//W3C//DTD SVG 1.1//EN" "http://www.w3.org/Graphics/SVG/1.1/DTD/svg11.dtd">
<svg version="1.1" id="Layer_1" xmlns="http://www.w3.org/2000/svg" xmlns:xlink="http://www.w3.org/1999/xlink" x="0px" y="0px"
	 width="309.09px" height="192.339px" viewBox="0 0 309.09 192.339" enable-background="new 0 0 309.09 192.339"
	 xml:space="preserve">
<g>
	<defs>
		<polyline id="SVGID_1_" points="109.859,362.146 203.617,362.146 202.617,-216.8 53.667,-216.8 		"/>
	</defs>
	<clipPath id="SVGID_2_">
		<use xlink:href="#SVGID_1_"  overflow="visible"/>
	</clipPath>
	<path clip-path="url(#SVGID_2_)" fill="none" stroke="#808080" stroke-width="0.2" stroke-miterlimit="10" d="M179.375,130.117
		V36.412 M156.115,130.117V36.412 M132.855,130.117V36.412 M109.859,59.671h93.758 M109.859,82.931h93.758 M109.859,106.188h93.758
		 M109.859,175.968 M109.859,199.228"/>
</g>
<g>
	
		<line fill="none" stroke="#000000" stroke-width="1.5" stroke-miterlimit="10" x1="99.722" y1="129.448" x2="203.617" y2="129.448"/>
	<g>
		<path d="M96.867,141.111c0.422,0.778,0.633,1.846,0.633,3.201c0,1.284-0.191,2.347-0.574,3.188
			c-0.554,1.205-1.461,1.809-2.719,1.809c-1.135,0-1.979-0.493-2.534-1.479c-0.462-0.823-0.693-1.928-0.693-3.313
			c0-1.073,0.139-1.995,0.416-2.765c0.519-1.435,1.458-2.152,2.818-2.152C95.437,139.6,96.321,140.104,96.867,141.111z
			 M95.671,147.407c0.366-0.545,0.549-1.562,0.549-3.049c0-1.073-0.132-1.957-0.397-2.649c-0.264-0.693-0.778-1.04-1.54-1.04
			c-0.701,0-1.213,0.329-1.537,0.987c-0.324,0.657-0.486,1.626-0.486,2.906c0,0.964,0.104,1.738,0.311,2.323
			c0.317,0.894,0.859,1.34,1.626,1.34C94.814,148.226,95.306,147.953,95.671,147.407z"/>
	</g>
	<g>
		<path d="M199.422,142.358v-0.91c0.857-0.084,1.456-0.224,1.795-0.419c0.339-0.196,0.592-0.659,0.759-1.39h0.938v9.411h-1.268
			v-6.692H199.422z"/>
	</g>
	<path d="M150.805,153.944c0.158-0.108,0.32-0.163,0.485-0.163c0.079,0,0.158,0.011,0.237,0.035c0.079,0.022,0.165,0.06,0.258,0.112
		l0.346,0.189c0.047,0.026,0.092,0.044,0.135,0.055c0.043,0.009,0.09,0.014,0.143,0.014c0.165,0,0.293-0.04,0.382-0.124
		c0.089-0.081,0.317-0.371,0.688-0.866c0.244-0.323,0.799-1.111,1.663-2.365c0-0.046-0.076-0.4-0.228-1.064
		c-0.152-0.662-0.29-1.226-0.416-1.688c-0.125-0.469-0.237-0.776-0.337-0.926c-0.099-0.147-0.283-0.223-0.554-0.223
		c-0.093,0-0.274,0.033-0.545,0.1c-0.171,0.039-0.356,0.085-0.554,0.138l-0.09-0.308l1.1-0.376c0.283-0.1,0.546-0.179,0.787-0.237
		c0.241-0.06,0.446-0.089,0.618-0.089c0.277,0,0.485,0.082,0.624,0.247c0.211,0.264,0.389,0.785,0.534,1.563l0.208,1.129
		c0.594-0.911,1.056-1.551,1.386-1.921c0.297-0.336,0.577-0.587,0.842-0.752c0.264-0.165,0.515-0.246,0.752-0.246
		c0.225,0,0.406,0.033,0.545,0.099c0.251,0.119,0.376,0.344,0.376,0.673c0,0.225-0.062,0.398-0.188,0.524
		c-0.125,0.125-0.287,0.188-0.484,0.188c-0.073,0-0.143-0.009-0.208-0.023c-0.066-0.018-0.136-0.042-0.208-0.075l-0.258-0.11
		c-0.072-0.032-0.142-0.06-0.208-0.083c-0.065-0.022-0.115-0.035-0.148-0.035c-0.297,0-0.709,0.385-1.237,1.154
		c-0.527,0.769-0.792,1.213-0.792,1.331c0,0.1,0.062,0.42,0.184,0.966c0.122,0.544,0.256,1.12,0.4,1.728
		c0.133,0.573,0.244,0.97,0.337,1.188c0.151,0.356,0.323,0.534,0.515,0.534c0.179,0,0.359-0.099,0.545-0.297
		c0.185-0.197,0.462-0.554,0.831-1.069l0.277,0.168c-0.284,0.515-0.577,0.954-0.881,1.317c-0.574,0.687-1.122,1.029-1.644,1.029
		c-0.33,0-0.591-0.158-0.782-0.475c-0.112-0.185-0.221-0.488-0.326-0.911l-0.614-2.446l-2.029,2.664
		c-0.396,0.462-0.7,0.772-0.915,0.931s-0.48,0.237-0.798,0.237c-0.422,0-0.709-0.132-0.861-0.396
		c-0.085-0.139-0.128-0.304-0.128-0.495C150.567,154.236,150.646,154.054,150.805,153.944z"/>
</g>
<g>
	
		<line fill="none" stroke="#000000" stroke-width="1.5" stroke-miterlimit="10" x1="109.598" y1="139.504" x2="109.598" y2="28.371"/>
	<g>
		<path d="M91.851,36.605v-0.911c0.858-0.083,1.457-0.223,1.795-0.419c0.338-0.196,0.591-0.659,0.759-1.389h0.937v9.411h-1.267
			v-6.692H91.851z"/>
	</g>
	<path fill="none" stroke="#000000" stroke-width="1.5" stroke-miterlimit="10" d="M107.344,59.671h4.506 M107.344,82.931h4.506
		 M107.344,106.188h4.506"/>
	<path fill="none" stroke="#000000" stroke-width="1.5" stroke-miterlimit="10" d="M105.092,36.412h9.011 M105.092,129.448h9.011"/>
	<path d="M76.994,89.063c0.132-0.151,0.323-0.229,0.574-0.229c0.165,0,0.31,0.033,0.436,0.095c0.125,0.063,0.257,0.153,0.396,0.272
		l0.139,0.099c0.04,0.033,0.084,0.058,0.133,0.075c0.05,0.016,0.104,0.024,0.164,0.024c0.323,0,0.843-0.427,1.559-1.283
		c0.716-0.854,1.074-1.476,1.074-1.865c0-0.369-0.124-1.096-0.371-2.178c-0.248-1.082-0.487-2.046-0.718-2.891
		c-0.324-1.188-0.619-1.993-0.886-2.416c-0.267-0.422-0.662-0.633-1.183-0.633c-0.04,0-0.107,0.004-0.203,0.015
		c-0.096,0.009-0.259,0.026-0.49,0.053v-0.325l2.703-0.515l0.208-0.02c0.165-0.021,0.482,0.721,0.95,2.226
		c0.422,1.354,0.687,2.337,0.792,2.95l0.396,2.356c0.693-1.162,1.201-2.053,1.524-2.673c0.634-1.221,0.951-2.074,0.951-2.563
		c0-0.112-0.02-0.222-0.06-0.332c-0.04-0.107-0.132-0.202-0.277-0.281l-0.168-0.09c-0.106-0.054-0.229-0.152-0.372-0.298
		c-0.142-0.145-0.213-0.338-0.213-0.583c0-0.204,0.066-0.376,0.198-0.515s0.33-0.209,0.594-0.209c0.33,0,0.598,0.1,0.802,0.293
		c0.205,0.195,0.307,0.525,0.307,0.994c0,0.706-0.386,1.842-1.158,3.405c-0.594,1.195-1.257,2.354-1.99,3.477
		c-0.917,1.398-1.706,2.477-2.366,3.235c-1.049,1.195-1.92,1.793-2.613,1.793c-0.271,0-0.51-0.083-0.718-0.248
		s-0.312-0.39-0.312-0.674C76.795,89.396,76.862,89.215,76.994,89.063z"/>
</g>
<polyline fill="none" stroke="#FF3F55" stroke-miterlimit="10" points="66.532,127.981 66.758,127.975 66.983,127.968 
	67.208,127.962 67.435,127.955 67.66,127.948 67.885,127.939 68.11,127.934 68.336,127.927 68.562,127.918 68.787,127.91 
	69.012,127.902 69.238,127.895 69.464,127.885 69.689,127.877 69.914,127.868 70.14,127.857 70.366,127.849 70.591,127.837 
	70.816,127.829 71.042,127.817 71.268,127.808 71.493,127.796 71.718,127.784 71.944,127.771 72.17,127.761 72.395,127.748 
	72.62,127.736 72.846,127.724 73.072,127.709 73.297,127.695 73.522,127.682 73.748,127.667 73.974,127.651 74.199,127.636 
	74.423,127.621 74.65,127.606 74.876,127.589 75.101,127.573 75.326,127.556 75.552,127.538 75.778,127.519 76.003,127.5 
	76.228,127.481 76.454,127.462 76.68,127.442 76.904,127.423 77.129,127.401 77.356,127.378 77.582,127.356 77.807,127.333 
	78.032,127.311 78.257,127.287 78.484,127.263 78.709,127.236 78.934,127.212 79.159,127.187 79.386,127.158 79.61,127.132 
	79.835,127.104 80.062,127.072 80.288,127.045 80.513,127.015 80.737,126.983 80.963,126.95 81.189,126.918 81.415,126.885 
	81.64,126.853 81.865,126.817 82.092,126.782 82.316,126.745 82.541,126.709 82.768,126.669 82.993,126.632 83.219,126.591 
	83.443,126.551 83.669,126.51 83.896,126.466 84.12,126.422 84.346,126.378 84.571,126.332 84.797,126.287 85.022,126.238 
	85.247,126.19 85.474,126.141 85.699,126.09 85.924,126.038 86.149,125.985 86.375,125.931 86.602,125.877 86.826,125.819 
	87.052,125.763 87.277,125.703 87.503,125.645 87.729,125.583 87.953,125.52 88.18,125.457 88.405,125.392 88.63,125.326 
	88.855,125.258 89.081,125.188 89.307,125.118 89.532,125.046 89.757,124.972 89.983,124.898 90.209,124.821 90.434,124.745 
	90.659,124.664 90.885,124.583 91.111,124.502 91.336,124.417 91.561,124.332 91.787,124.244 92.013,124.155 92.238,124.066 
	92.463,123.974 92.689,123.881 92.915,123.784 93.14,123.686 93.364,123.587 93.591,123.484 93.817,123.382 94.042,123.277 
	94.267,123.171 94.493,123.062 94.719,122.952 94.944,122.838 95.169,122.725 95.395,122.609 95.621,122.488 95.846,122.368 
	96.07,122.246 96.297,122.122 96.522,121.993 96.748,121.864 96.973,121.733 97.198,121.6 97.425,121.465 97.65,121.325 
	97.875,121.185 98.101,121.043 98.326,120.896 98.552,120.751 98.776,120.6 99.002,120.447 99.229,120.294 99.454,120.138 
	99.679,119.978 99.904,119.813 100.131,119.65 100.355,119.481 100.581,119.313 100.807,119.142 101.032,118.966 101.258,118.787 
	101.482,118.607 101.708,118.424 101.935,118.238 102.159,118.051 102.384,117.859 102.611,117.665 102.837,117.468 103.062,117.27 
	103.286,117.066 103.513,116.861 103.738,116.653 103.963,116.441 104.188,116.228 104.414,116.012 104.64,115.791 104.865,115.568 
	105.09,115.343 105.316,115.114 105.543,114.882 105.768,114.648 105.992,114.41 106.219,114.168 106.444,113.924 106.669,113.677 
	106.895,113.428 107.12,113.174 107.346,112.917 107.571,112.657 107.796,112.395 108.022,112.128 108.249,111.86 108.474,111.586 
	108.698,111.312 108.924,111.032 109.15,110.75 109.375,110.464 109.6,110.176 109.826,109.886 110.052,109.588 110.276,109.292 
	110.502,108.99 110.728,108.685 110.954,108.377 111.18,108.066 111.404,107.75 111.63,107.433 111.856,107.111 112.081,106.786 
	112.306,106.459 112.532,106.129 112.758,105.793 112.982,105.456 113.207,105.115 113.434,104.771 113.66,104.423 113.885,104.074 
	114.11,103.721 114.336,103.362 114.562,103.001 114.787,102.64 115.012,102.272 115.237,101.903 115.464,101.529 115.688,101.154 
	115.913,100.774 116.14,100.392 116.366,100.005 116.591,99.619 116.816,99.226 117.042,98.83 117.268,98.434 117.493,98.033 
	117.718,97.629 117.943,97.223 118.17,96.814 118.395,96.402 118.619,95.987 118.845,95.567 119.072,95.146 119.297,94.723 
	119.521,94.297 119.748,93.869 119.974,93.436 120.198,93.002 120.424,92.564 120.649,92.126 120.875,91.683 121.101,91.239 
	121.325,90.791 121.551,90.342 121.778,89.89 122.003,89.436 122.228,88.979 122.454,88.522 122.68,88.062 122.904,87.599 
	123.129,87.134 123.355,86.667 123.581,86.197 123.806,85.725 124.031,85.253 124.257,84.779 124.484,84.303 124.709,83.825 
	124.934,83.344 125.159,82.864 125.386,82.381 125.61,81.896 125.835,81.409 126.062,80.922 126.287,80.436 126.512,79.946 
	126.737,79.455 126.963,78.964 127.188,78.47 127.415,77.976 127.64,77.482 127.865,76.987 128.092,76.492 128.316,75.993 
	128.541,75.496 128.768,74.997 128.993,74.5 129.218,74.002 129.442,73.502 129.669,73.004 129.896,72.504 130.12,72.003 
	130.346,71.505 130.571,71.006 130.797,70.506 131.022,70.008 131.247,69.509 131.473,69.012 131.699,68.514 131.924,68.017 
	132.148,67.521 132.375,67.026 132.601,66.53 132.826,66.036 133.052,65.544 133.277,65.053 133.503,64.562 133.729,64.073 
	133.953,63.585 134.179,63.099 134.404,62.614 134.63,62.132 134.854,61.65 135.08,61.17 135.307,60.693 135.532,60.217 
	135.757,59.744 135.983,59.273 136.209,58.803 136.434,58.337 136.659,57.873 136.885,57.411 137.11,56.952 137.336,56.496 
	137.561,56.042 137.786,55.591 138.013,55.144 138.238,54.699 138.463,54.258 138.689,53.819 138.915,53.385 139.14,52.953 
	139.364,52.525 139.591,52.101 139.816,51.68 140.041,51.263 140.267,50.851 140.492,50.442 140.718,50.037 140.943,49.636 
	141.169,49.239 141.395,48.848 141.621,48.459 141.846,48.076 142.07,47.697 142.297,47.323 142.522,46.954 142.747,46.589 
	142.973,46.229 143.198,45.874 143.424,45.524 143.648,45.179 143.875,44.84 144.101,44.506 144.327,44.177 144.552,43.854 
	144.776,43.536 145.002,43.223 145.229,42.916 145.453,42.615 145.678,42.319 145.904,42.03 146.13,41.747 146.354,41.469 
	146.581,41.197 146.807,40.931 147.032,40.671 147.258,40.418 147.482,40.171 147.708,39.93 147.935,39.696 148.159,39.468 
	148.384,39.247 148.609,39.032 148.836,38.824 149.061,38.622 149.285,38.427 149.513,38.238 149.738,38.057 149.963,37.882 
	150.188,37.714 150.414,37.554 150.64,37.4 150.865,37.252 151.09,37.112 151.315,36.979 151.542,36.854 151.767,36.734 
	151.991,36.623 152.219,36.518 152.444,36.421 152.669,36.331 152.895,36.247 153.12,36.171 153.346,36.103 153.571,36.042 
	153.796,35.988 154.021,35.941 154.248,35.901 154.473,35.87 154.697,35.845 154.924,35.827 155.15,35.817 155.375,35.815 
	155.6,35.819 155.826,35.831 156.052,35.851 156.276,35.877 156.502,35.911 156.728,35.952 156.953,36.001 157.179,36.058 
	157.403,36.12 157.63,36.19 157.856,36.268 158.081,36.354 158.306,36.445 158.532,36.545 158.758,36.651 158.982,36.765 
	159.207,36.886 159.434,37.014 159.659,37.148 159.884,37.29 160.109,37.439 160.336,37.595 160.562,37.758 160.787,37.927 
	161.012,38.104 161.237,38.287 161.464,38.477 161.688,38.674 161.913,38.877 162.14,39.087 162.365,39.304 162.59,39.527 
	162.815,39.756 163.042,39.992 163.268,40.234 163.493,40.484 163.718,40.739 163.943,40.999 164.17,41.267 164.395,41.54 
	164.619,41.819 164.845,42.104 165.071,42.396 165.296,42.692 165.521,42.995 165.747,43.304 165.974,43.618 166.198,43.937 
	166.424,44.262 166.649,44.592 166.875,44.928 167.101,45.269 167.325,45.615 167.551,45.966 167.777,46.322 168.002,46.683 
	168.227,47.049 168.454,47.419 168.68,47.795 168.904,48.175 169.129,48.56 169.355,48.948 169.581,49.342 169.806,49.74 
	170.032,50.141 170.257,50.547 170.482,50.958 170.708,51.372 170.933,51.789 171.158,52.21 171.385,52.636 171.61,53.064 
	171.835,53.497 172.062,53.933 172.287,54.372 172.512,54.813 172.738,55.259 172.963,55.708 173.188,56.159 173.414,56.613 
	173.639,57.07 173.864,57.53 174.091,57.993 174.316,58.458 174.542,58.925 174.768,59.395 174.993,59.866 175.218,60.341 
	175.442,60.816 175.669,61.295 175.894,61.775 176.119,62.257 176.345,62.74 176.57,63.225 176.797,63.712 177.022,64.2 
	177.247,64.689 177.473,65.18 177.699,65.672 177.924,66.165 178.148,66.659 178.375,67.153 178.6,67.649 178.825,68.146 
	179.052,68.643 179.276,69.14 179.503,69.639 179.729,70.137 179.953,70.637 180.179,71.135 180.403,71.635 180.63,72.134 
	180.854,72.633 181.08,73.132 181.307,73.633 181.531,74.131 181.756,74.629 181.982,75.126 182.209,75.624 182.434,76.122 
	182.659,76.618 182.885,77.115 183.109,77.609 183.336,78.105 183.562,78.599 183.786,79.09 184.013,79.581 184.237,80.073 
	184.462,80.562 184.688,81.05 184.913,81.536 185.14,82.021 185.366,82.506 185.591,82.988 185.816,83.469 186.041,83.947 
	186.267,84.425 186.492,84.901 186.718,85.375 186.943,85.847 187.168,86.319 187.394,86.786 187.62,87.253 187.846,87.719 
	188.071,88.18 188.297,88.641 188.522,89.099 188.747,89.556 188.973,90.008 189.198,90.46 189.423,90.907 189.648,91.355 
	189.875,91.799 190.1,92.24 190.326,92.679 190.552,93.116 190.776,93.548 191.002,93.98 191.229,94.408 191.453,94.834 
	191.678,95.258 191.904,95.677 192.13,96.094 192.354,96.509 192.581,96.92 192.806,97.328 193.031,97.734 193.258,98.138 
	193.482,98.538 193.708,98.936 193.934,99.328 194.159,99.72 194.385,100.105 194.61,100.49 194.836,100.873 195.061,101.25 
	195.285,101.626 195.512,101.999 195.736,102.368 195.963,102.733 196.188,103.096 196.414,103.456 196.64,103.812 196.865,104.166 
	197.091,104.516 197.315,104.86 197.542,105.203 197.767,105.544 197.991,105.88 198.218,106.214 198.442,106.545 198.668,106.872 
	198.896,107.194 199.12,107.516 199.346,107.833 199.571,108.146 199.796,108.458 200.021,108.766 200.246,109.069 200.473,109.37 
	200.697,109.667 200.923,109.959 201.149,110.253 201.374,110.539 201.602,110.825 201.826,111.104 202.052,111.383 
	202.276,111.659 202.502,111.93 202.728,112.198 202.952,112.462 203.179,112.725 203.404,112.984 203.629,113.24 203.855,113.493 
	204.08,113.742 204.306,113.988 204.532,114.231 204.757,114.472 204.982,114.71 205.207,114.943 205.434,115.173 205.659,115.402 
	205.885,115.627 206.109,115.85 206.335,116.068 206.561,116.284 206.786,116.497 207.012,116.708 207.237,116.915 207.463,117.118 
	207.688,117.321 207.914,117.521 208.14,117.716 208.365,117.909 208.59,118.099 208.815,118.287 209.041,118.473 209.266,118.654 
	209.492,118.832 209.717,119.012 209.943,119.185 210.17,119.356 210.395,119.524 210.619,119.693 210.846,119.857 211.071,120.02 
	211.296,120.176 211.521,120.333 211.747,120.488 211.972,120.639 212.197,120.788 212.424,120.937 212.649,121.08 212.875,121.223 
	213.101,121.362 213.325,121.5 213.551,121.635 213.776,121.769 214.002,121.899 214.228,122.028 214.453,122.153 214.679,122.277 
	214.903,122.399 215.129,122.52 215.354,122.64 215.581,122.755 215.807,122.869 216.031,122.979 216.257,123.092 216.482,123.198 
	216.708,123.306 216.934,123.41 217.158,123.513 217.385,123.613 217.609,123.712 217.834,123.808 218.062,123.904 218.286,123.998 
	218.512,124.09 218.738,124.179 218.963,124.27 219.188,124.354 219.414,124.439 219.639,124.524 219.864,124.604 220.091,124.686 
	220.315,124.765 220.54,124.841 220.766,124.918 220.993,124.991 221.218,125.066 221.443,125.136 221.669,125.206 221.895,125.275 
	222.119,125.343 222.345,125.409 222.57,125.475 222.795,125.538 223.021,125.599 223.247,125.66 223.473,125.719 223.699,125.778 
	223.924,125.835 224.148,125.891 224.375,125.946 224.6,125.999 224.825,126.051 225.051,126.104 225.276,126.153 225.502,126.204 
	225.727,126.252 225.954,126.297 226.178,126.344 226.404,126.39 226.63,126.433 226.854,126.477 227.08,126.521 227.306,126.562 
	227.531,126.601 227.757,126.641 227.982,126.68 228.208,126.717 228.433,126.754 228.658,126.792 228.885,126.826 229.108,126.861 
	229.336,126.895 229.561,126.927 229.786,126.96 230.013,126.991 230.237,127.022 230.463,127.051 230.688,127.082 230.914,127.109 
	231.139,127.139 231.363,127.165 231.59,127.192 231.815,127.22 232.041,127.243 232.268,127.27 232.492,127.293 232.718,127.317 
	232.943,127.34 233.168,127.363 233.394,127.386 233.619,127.405 233.845,127.427 234.069,127.446 234.297,127.469 234.522,127.486 
	234.747,127.506 234.973,127.525 235.198,127.543 235.424,127.56 235.649,127.577 235.874,127.593 236.1,127.61 236.324,127.626 
	236.551,127.641 236.776,127.656 237.001,127.672 237.228,127.685 237.453,127.699 237.678,127.713 237.904,127.727 
	238.129,127.739 238.354,127.752 238.58,127.763 238.806,127.776 239.031,127.787 239.257,127.798 239.481,127.81 239.707,127.819 
	239.935,127.831 240.159,127.842 240.384,127.851 240.61,127.859 240.835,127.87 "/>
</svg>
