<?xml version="1.0" encoding="utf-8"?>
<!-- Generator: Adobe Illustrator 16.0.0, SVG Export Plug-In . SVG Version: 6.00 Build 0)  -->
<!DOCTYPE svg PUBLIC "-//W3C//DTD SVG 1.1//EN" "http://www.w3.org/Graphics/SVG/1.1/DTD/svg11.dtd">
<svg version="1.1" id="Layer_1" xmlns="http://www.w3.org/2000/svg" xmlns:xlink="http://www.w3.org/1999/xlink" x="0px" y="0px"
	 width="309.09px" height="192.339px" viewBox="0 0 309.09 192.339" enable-background="new 0 0 309.09 192.339"
	 xml:space="preserve">
<g>
	<defs>
		<polyline id="SVGID_1_" points="109.859,362.146 203.617,362.146 202.617,-216.8 53.667,-216.8 		"/>
	</defs>
	<clipPath id="SVGID_2_">
		<use xlink:href="#SVGID_1_"  overflow="visible"/>
	</clipPath>
	<path clip-path="url(#SVGID_2_)" fill="none" stroke="#808080" stroke-width="0.2" stroke-miterlimit="10" d="M179.375,130.117
		V36.412 M156.115,130.117V36.412 M132.855,130.117V36.412 M109.859,59.671h93.758 M109.859,82.931h93.758 M109.859,106.188h93.758
		 M109.859,175.968 M109.859,199.228"/>
</g>
<g>
	
		<line fill="none" stroke="#000000" stroke-width="1.5" stroke-miterlimit="10" x1="99.722" y1="129.448" x2="203.617" y2="129.448"/>
	<g>
		<path d="M96.867,141.111c0.422,0.778,0.633,1.846,0.633,3.201c0,1.284-0.191,2.347-0.574,3.188
			c-0.554,1.205-1.461,1.809-2.719,1.809c-1.135,0-1.979-0.493-2.534-1.479c-0.462-0.823-0.693-1.928-0.693-3.313
			c0-1.073,0.139-1.995,0.416-2.765c0.519-1.435,1.458-2.152,2.818-2.152C95.437,139.6,96.321,140.104,96.867,141.111z
			 M95.671,147.407c0.366-0.545,0.549-1.562,0.549-3.049c0-1.073-0.132-1.957-0.397-2.649c-0.264-0.693-0.778-1.04-1.54-1.04
			c-0.701,0-1.213,0.329-1.537,0.987c-0.324,0.657-0.486,1.626-0.486,2.906c0,0.964,0.104,1.738,0.311,2.323
			c0.317,0.894,0.859,1.34,1.626,1.34C94.814,148.226,95.306,147.953,95.671,147.407z"/>
	</g>
	<g>
		<path d="M199.422,142.358v-0.91c0.857-0.084,1.456-0.224,1.795-0.419c0.339-0.196,0.592-0.659,0.759-1.39h0.938v9.411h-1.268
			v-6.692H199.422z"/>
	</g>
	<path d="M150.805,153.944c0.158-0.108,0.32-0.163,0.485-0.163c0.079,0,0.158,0.011,0.237,0.035c0.079,0.022,0.165,0.06,0.258,0.112
		l0.346,0.189c0.047,0.026,0.092,0.044,0.135,0.055c0.043,0.009,0.09,0.014,0.143,0.014c0.165,0,0.293-0.04,0.382-0.124
		c0.089-0.081,0.317-0.371,0.688-0.866c0.244-0.323,0.799-1.111,1.663-2.365c0-0.046-0.076-0.4-0.228-1.064
		c-0.152-0.662-0.29-1.226-0.416-1.688c-0.125-0.469-0.237-0.776-0.337-0.926c-0.099-0.147-0.283-0.223-0.554-0.223
		c-0.093,0-0.274,0.033-0.545,0.1c-0.171,0.039-0.356,0.085-0.554,0.138l-0.09-0.308l1.1-0.376c0.283-0.1,0.546-0.179,0.787-0.237
		c0.241-0.06,0.446-0.089,0.618-0.089c0.277,0,0.485,0.082,0.624,0.247c0.211,0.264,0.389,0.785,0.534,1.563l0.208,1.129
		c0.594-0.911,1.056-1.551,1.386-1.921c0.297-0.336,0.577-0.587,0.842-0.752c0.264-0.165,0.515-0.246,0.752-0.246
		c0.225,0,0.406,0.033,0.545,0.099c0.251,0.119,0.376,0.344,0.376,0.673c0,0.225-0.062,0.398-0.188,0.524
		c-0.125,0.125-0.287,0.188-0.484,0.188c-0.073,0-0.143-0.009-0.208-0.023c-0.066-0.018-0.136-0.042-0.208-0.075l-0.258-0.11
		c-0.072-0.032-0.142-0.06-0.208-0.083c-0.065-0.022-0.115-0.035-0.148-0.035c-0.297,0-0.709,0.385-1.237,1.154
		c-0.527,0.769-0.792,1.213-0.792,1.331c0,0.1,0.062,0.42,0.184,0.966c0.122,0.544,0.256,1.12,0.4,1.728
		c0.133,0.573,0.244,0.97,0.337,1.188c0.151,0.356,0.323,0.534,0.515,0.534c0.179,0,0.359-0.099,0.545-0.297
		c0.185-0.197,0.462-0.554,0.831-1.069l0.277,0.168c-0.284,0.515-0.577,0.954-0.881,1.317c-0.574,0.687-1.122,1.029-1.644,1.029
		c-0.33,0-0.591-0.158-0.782-0.475c-0.112-0.185-0.221-0.488-0.326-0.911l-0.614-2.446l-2.029,2.664
		c-0.396,0.462-0.7,0.772-0.915,0.931s-0.48,0.237-0.798,0.237c-0.422,0-0.709-0.132-0.861-0.396
		c-0.085-0.139-0.128-0.304-0.128-0.495C150.567,154.236,150.646,154.054,150.805,153.944z"/>
</g>
<g>
	
		<line fill="none" stroke="#000000" stroke-width="1.5" stroke-miterlimit="10" x1="109.598" y1="139.504" x2="109.598" y2="28.371"/>
	<g>
		<path d="M91.851,36.605v-0.911c0.858-0.083,1.457-0.223,1.795-0.419c0.338-0.196,0.591-0.659,0.759-1.389h0.937v9.411h-1.267
			v-6.692H91.851z"/>
	</g>
	<path fill="none" stroke="#000000" stroke-width="1.5" stroke-miterlimit="10" d="M107.344,59.671h4.506 M107.344,82.931h4.506
		 M107.344,106.188h4.506"/>
	<path fill="none" stroke="#000000" stroke-width="1.5" stroke-miterlimit="10" d="M105.092,36.412h9.011 M105.092,129.448h9.011"/>
	<path d="M76.994,89.063c0.132-0.151,0.323-0.229,0.574-0.229c0.165,0,0.31,0.033,0.436,0.095c0.125,0.063,0.257,0.153,0.396,0.272
		l0.139,0.099c0.04,0.033,0.084,0.058,0.133,0.075c0.05,0.016,0.104,0.024,0.164,0.024c0.323,0,0.843-0.427,1.559-1.283
		c0.716-0.854,1.074-1.476,1.074-1.865c0-0.369-0.124-1.096-0.371-2.178c-0.248-1.082-0.487-2.046-0.718-2.891
		c-0.324-1.188-0.619-1.993-0.886-2.416c-0.267-0.422-0.662-0.633-1.183-0.633c-0.04,0-0.107,0.004-0.203,0.015
		c-0.096,0.009-0.259,0.026-0.49,0.053v-0.325l2.703-0.515l0.208-0.02c0.165-0.021,0.482,0.721,0.95,2.226
		c0.422,1.354,0.687,2.337,0.792,2.95l0.396,2.356c0.693-1.162,1.201-2.053,1.524-2.673c0.634-1.221,0.951-2.074,0.951-2.563
		c0-0.112-0.02-0.222-0.06-0.332c-0.04-0.107-0.132-0.202-0.277-0.281l-0.168-0.09c-0.106-0.054-0.229-0.152-0.372-0.298
		c-0.142-0.145-0.213-0.338-0.213-0.583c0-0.204,0.066-0.376,0.198-0.515s0.33-0.209,0.594-0.209c0.33,0,0.598,0.1,0.802,0.293
		c0.205,0.195,0.307,0.525,0.307,0.994c0,0.706-0.386,1.842-1.158,3.405c-0.594,1.195-1.257,2.354-1.99,3.477
		c-0.917,1.398-1.706,2.477-2.366,3.235c-1.049,1.195-1.92,1.793-2.613,1.793c-0.271,0-0.51-0.083-0.718-0.248
		s-0.312-0.39-0.312-0.674C76.795,89.396,76.862,89.215,76.994,89.063z"/>
</g>
<g>
	<defs>
		<polyline id="SVGID_3_" points="54.667,362.146 634.865,362.146 634.865,33.092 54.667,33.092 		"/>
	</defs>
	<clipPath id="SVGID_4_">
		<use xlink:href="#SVGID_3_"  overflow="visible"/>
	</clipPath>
	<path clip-path="url(#SVGID_4_)" fill="none" stroke="#7B30FF" stroke-miterlimit="10" d="M204.071,132.323"/>
	<polyline clip-path="url(#SVGID_4_)" fill="none" stroke="#7B30FF" stroke-miterlimit="10" points="108.219,132.207 
		108.445,131.751 108.672,131.298 108.899,130.843 109.127,130.39 109.354,129.935 109.58,129.481 109.809,129.025 110.036,128.572 
		110.263,128.117 110.489,127.664 110.717,127.209 110.944,126.756 111.171,126.3 111.397,125.847 111.625,125.392 111.854,124.938 
		112.08,124.483 112.307,124.029 112.533,123.574 112.762,123.121 112.988,122.666 113.215,122.213 113.442,121.757 113.67,121.304 
		113.896,120.849 114.123,120.396 114.352,119.94 114.578,119.487 114.805,119.031 115.031,118.578 115.26,118.123 115.487,117.67 
		115.714,117.215 115.94,116.762 116.168,116.306 116.396,115.853 116.623,115.397 116.85,114.944 117.076,114.489 117.305,114.035 
		117.531,113.58 117.758,113.127 117.985,112.672 118.213,112.219 118.439,111.763 118.666,111.31 118.895,110.854 119.121,110.401 
		119.348,109.946 119.574,109.493 119.803,109.037 120.03,108.584 120.257,108.129 120.483,107.676 120.711,107.221 
		120.938,106.767 121.165,106.312 121.392,105.858 121.619,105.403 121.848,104.95 122.074,104.494 122.301,104.041 
		122.528,103.586 122.756,103.133 122.982,102.678 123.209,102.225 123.437,101.769 123.664,101.315 123.891,100.86 
		124.117,100.407 124.346,99.952 124.572,99.499 124.799,99.043 125.025,98.59 125.254,98.135 125.481,97.682 125.708,97.226 
		125.935,96.772 126.162,96.317 126.39,95.864 126.616,95.409 126.843,94.956 127.071,94.5 127.299,94.047 127.525,93.592 
		127.752,93.139 127.979,92.684 128.207,92.23 128.434,91.774 128.66,91.321 128.888,90.866 129.115,90.413 129.343,89.958 
		129.569,89.505 129.797,89.049 130.024,88.596 130.251,88.141 130.478,87.688 130.705,87.231 130.933,86.778 131.159,86.323 
		131.386,85.87 131.613,85.415 131.842,84.962 132.068,84.506 132.295,84.053 132.522,83.598 132.75,83.145 132.977,82.689 
		133.203,82.236 133.431,81.78 133.658,81.327 133.885,80.872 134.111,80.419 134.34,79.964 134.567,79.51 134.794,79.055 
		135.021,78.602 135.248,78.146 135.476,77.693 135.702,77.237 135.929,76.784 136.156,76.329 136.384,75.876 136.61,75.421 
		136.838,74.968 137.065,74.512 137.293,74.059 137.52,73.604 137.746,73.15 137.974,72.695 138.201,72.242 138.428,71.786 
		138.654,71.333 138.882,70.878 139.11,70.425 139.337,69.969 139.563,69.516 139.791,69.061 140.019,68.607 140.245,68.152 
		140.472,67.699 140.699,67.243 140.927,66.79 141.153,66.335 141.38,65.882 141.607,65.427 141.836,64.974 142.062,64.519 
		142.289,64.064 142.517,63.609 142.744,63.156 142.971,62.7 143.197,62.247 143.425,61.792 143.652,61.339 143.879,60.884 
		144.105,60.431 144.334,59.976 144.562,59.522 144.788,59.066 145.015,58.613 145.242,58.157 145.47,57.704 145.696,57.249 
		145.923,56.796 146.15,56.341 146.379,55.888 146.605,55.433 146.832,54.979 147.06,54.523 147.287,54.07 147.514,53.615 
		147.74,53.162 147.968,52.707 148.195,52.253 148.422,51.798 148.648,51.345 148.876,50.89 149.104,50.436 149.331,49.981 
		149.558,49.528 149.785,49.072 150.013,48.619 150.239,48.164 150.466,47.71 150.693,47.255 150.921,46.802 151.147,46.347 
		151.374,45.894 151.602,45.438 151.83,44.985 152.057,44.529 152.283,44.076 152.511,43.621 152.738,43.168 152.965,42.712 
		153.191,42.259 153.419,41.804 153.646,41.351 153.873,40.895 154.1,40.442 154.328,39.987 154.556,39.534 154.782,39.078 
		155.009,38.625 155.236,38.169 155.464,37.716 155.69,37.261 155.917,36.808 156.145,36.471 156.373,36.924 156.6,37.38 
		156.826,37.833 157.054,38.288 157.281,38.742 157.508,39.197 157.734,39.65 157.962,40.105 158.189,40.559 158.416,41.014 
		158.643,41.467 158.87,41.922 159.099,42.376 159.325,42.831 159.552,43.284 159.779,43.74 160.007,44.193 160.233,44.648 
		160.46,45.102 160.688,45.557 160.915,46.01 161.142,46.465 161.368,46.918 161.597,47.374 161.824,47.827 162.051,48.283 
		162.277,48.736 162.505,49.191 162.732,49.644 162.959,50.1 163.186,50.553 163.413,51.008 163.641,51.461 163.867,51.917 
		164.094,52.37 164.322,52.825 164.55,53.278 164.776,53.734 165.003,54.187 165.23,54.643 165.458,55.096 165.685,55.551 
		165.911,56.005 166.139,56.46 166.367,56.913 166.594,57.368 166.82,57.821 167.048,58.276 167.275,58.729 167.502,59.185 
		167.729,59.639 167.956,60.094 168.184,60.547 168.41,61.003 168.637,61.456 168.865,61.911 169.093,62.364 169.319,62.819 
		169.546,63.272 169.773,63.728 170.001,64.181 170.228,64.637 170.454,65.09 170.682,65.545 170.909,65.998 171.136,66.454 
		171.364,66.907 171.591,67.362 171.817,67.815 172.045,68.271 172.271,68.724 172.499,69.18 172.726,69.633 172.953,70.088 
		173.181,70.541 173.407,70.997 173.635,71.45 173.862,71.905 174.09,72.358 174.316,72.813 174.543,73.267 174.771,73.723 
		174.997,74.176 175.225,74.631 175.452,75.084 175.679,75.539 175.906,75.992 176.133,76.448 176.359,76.901 176.588,77.356 
		176.814,77.81 177.042,78.265 177.269,78.718 177.496,79.174 177.724,79.627 177.95,80.082 178.177,80.535 178.404,80.991 
		178.633,81.444 178.859,81.899 179.086,82.353 179.313,82.808 179.54,83.261 179.768,83.717 179.995,84.17 180.222,84.625 
		180.449,85.078 180.676,85.533 180.902,85.986 181.131,86.442 181.357,86.896 181.585,87.351 181.812,87.804 182.039,88.259 
		182.267,88.713 182.493,89.168 182.72,89.621 182.947,90.076 183.175,90.529 183.401,90.985 183.628,91.438 183.856,91.894 
		184.083,92.347 184.311,92.802 184.538,93.255 184.765,93.711 184.992,94.164 185.219,94.619 185.445,95.072 185.673,95.527 
		185.899,95.98 186.127,96.437 186.355,96.89 186.582,97.345 186.81,97.798 187.036,98.254 187.263,98.707 187.49,99.162 
		187.718,99.615 187.944,100.07 188.171,100.523 188.398,100.979 188.627,101.433 188.854,101.888 189.081,102.341 189.308,102.796 
		189.535,103.249 189.762,103.705 189.988,104.158 190.216,104.613 190.442,105.066 190.67,105.521 190.898,105.976 
		191.125,106.431 191.353,106.884 191.579,107.339 191.806,107.792 192.033,108.248 192.261,108.701 192.487,109.156 
		192.714,109.609 192.941,110.064 193.169,110.518 193.396,110.974 193.624,111.427 193.851,111.882 194.078,112.335 
		194.305,112.79 194.531,113.243 194.759,113.699 194.985,114.152 195.213,114.607 195.44,115.061 195.667,115.517 195.895,115.97 
		196.122,116.425 196.349,116.878 196.576,117.333 196.803,117.786 197.03,118.242 197.257,118.695 197.484,119.15 197.712,119.604 
		197.938,120.059 198.166,120.512 198.393,120.968 198.621,121.421 198.848,121.876 199.074,122.329 199.302,122.784 
		199.528,123.238 199.756,123.693 199.983,124.146 200.21,124.602 200.438,125.055 200.664,125.511 200.891,125.964 
		201.119,126.419 201.346,126.872 201.573,127.327 201.8,127.78 202.027,128.236 202.255,128.689 202.481,129.145 202.709,129.598 
		202.936,130.053 203.163,130.506 203.391,130.962 203.617,131.415 	"/>
	<polyline clip-path="url(#SVGID_4_)" fill="none" stroke="#7B30FF" stroke-miterlimit="10" points="-295.502,937.646 
		-295.275,937.193 -295.048,936.737 -294.82,936.284 -294.593,935.829 -294.366,935.376 -294.139,934.921 -293.912,934.468 
		-293.685,934.012 -293.458,933.559 -293.23,933.104 -293.003,932.65 -292.776,932.194 -292.549,931.741 -292.322,931.286 
		-292.095,930.831 -291.868,930.378 -291.641,929.925 -291.414,929.469 -291.187,929.016 -290.959,928.561 -290.732,928.105 
		-290.505,927.652 -290.278,927.198 -290.051,926.743 -289.823,926.29 -289.596,925.835 -289.369,925.382 -289.142,924.927 
		-288.915,924.473 -288.688,924.018 -288.46,923.564 -288.233,923.109 -288.006,922.656 -287.779,922.2 -287.552,921.747 
		-287.325,921.292 -287.098,920.837 -286.871,920.384 -286.644,919.931 -286.417,919.475 -286.189,919.021 -285.962,918.566 
		-285.735,918.111 -285.508,917.658 -285.281,917.204 -285.054,916.749 -284.826,916.296 -284.599,915.841 -284.372,915.386 
		-284.145,914.932 -283.918,914.479 -283.69,914.023 -283.463,913.57 -283.236,913.115 -283.009,912.662 -282.782,912.206 
		-282.555,911.753 -282.328,911.298 -282.101,910.845 -281.874,910.39 -281.646,909.937 -281.419,909.48 -281.192,909.027 
		-280.965,908.572 -280.738,908.119 -280.511,907.663 -280.284,907.21 -280.057,906.755 -279.829,906.302 -279.602,905.847 
		-279.375,905.394 -279.148,904.938 -278.921,904.484 -278.693,904.029 -278.466,903.576 -278.239,903.121 -278.012,902.668 
		-277.785,902.212 -277.558,901.759 -277.331,901.304 -277.104,900.851 -276.876,900.396 -276.649,899.942 -276.422,899.486 
		-276.195,899.033 -275.968,898.578 -275.741,898.125 -275.514,897.669 -275.287,897.216 -275.059,896.761 -274.832,896.308 
		-274.605,895.853 -274.378,895.399 -274.151,894.943 -273.924,894.49 -273.696,894.035 -273.469,893.582 -273.242,893.127 
		-273.015,892.674 -272.788,892.218 -272.561,891.765 -272.333,891.31 -272.106,890.856 -271.879,890.401 -271.652,889.947 
		-271.425,889.492 -271.198,889.039 -270.971,888.584 -270.744,888.131 -270.517,887.675 -270.29,887.222 -270.062,886.767 
		-269.835,886.313 -269.608,885.858 -269.381,885.405 -269.154,884.949 -268.927,884.496 -268.699,884.041 -268.472,883.588 
		-268.245,883.133 -268.018,882.679 -267.791,882.224 -267.563,881.771 -267.336,881.315 -267.109,880.862 -266.882,880.406 
		-266.655,879.953 -266.428,879.498 -266.201,879.045 -265.974,878.59 -265.747,878.137 -265.52,877.681 -265.292,877.228 
		-265.065,876.772 -264.838,876.319 -264.611,875.864 -264.384,875.411 -264.157,874.955 -263.929,874.502 -263.702,874.047 
		-263.475,873.594 -263.248,873.138 -263.021,872.685 -262.794,872.229 -262.566,871.776 -262.339,871.321 -262.112,870.868 
		-261.885,870.412 -261.658,869.959 -261.431,869.504 -261.204,869.051 -260.977,868.596 -260.75,868.143 -260.522,867.687 
		-260.295,867.233 -260.068,866.778 -259.841,866.325 -259.614,865.87 -259.387,865.417 -259.16,864.961 -258.932,864.508 
		-258.705,864.053 -258.478,863.6 -258.251,863.144 -258.024,862.69 -257.797,862.235 -257.569,861.782 -257.342,861.327 
		-257.115,860.874 -256.888,860.418 -256.661,859.965 -256.434,859.51 -256.207,859.057 -255.979,858.602 -255.752,858.148 
		-255.525,857.692 -255.298,857.239 -255.071,856.784 -254.844,856.331 -254.617,855.876 -254.39,855.423 -254.163,854.967 
		-253.935,854.514 -253.708,854.059 -253.481,853.605 -253.254,853.149 -253.027,852.696 -252.799,852.241 -252.572,851.788 
		-252.345,851.333 -252.118,850.88 -251.891,850.424 -251.664,849.971 -251.437,849.516 -251.209,849.062 -250.982,848.607 
		-250.755,848.153 -250.528,847.698 -250.301,847.245 -250.074,846.79 -249.847,846.337 -249.62,845.882 -249.393,845.428 
		-249.166,844.973 -248.938,844.52 -248.711,844.064 -248.484,843.611 -248.257,843.155 -248.03,842.702 -247.802,842.247 
		-247.575,841.794 -247.348,841.339 -247.121,840.886 -246.894,840.43 -246.667,839.977 -246.439,839.521 -246.212,839.068 
		-245.985,838.613 -245.758,838.159 -245.531,837.704 -245.304,837.251 -245.077,836.796 -244.85,836.343 -244.623,835.887 
		-244.396,835.434 -244.168,834.979 -243.941,834.525 -243.714,834.07 -243.487,833.617 -243.26,833.161 -243.033,832.708 
		-242.805,832.253 -242.578,831.8 -242.351,831.345 -242.124,830.892 -241.897,830.436 -241.669,829.982 -241.442,829.527 
		-241.215,829.074 -240.988,828.618 -240.761,828.165 -240.534,827.71 -240.307,827.257 -240.08,826.802 -239.853,826.349 
		-239.625,825.893 -239.398,825.439 -239.171,824.984 -238.944,824.531 -238.717,824.076 -238.49,823.623 -238.263,823.167 
		-238.035,822.714 -237.808,822.259 -237.581,821.806 -237.354,821.351 -237.127,820.897 -236.9,820.441 -236.672,819.988 
		-236.445,819.533 -236.218,819.08 -235.991,818.624 -235.764,818.171 -235.537,817.716 -235.31,817.263 -235.083,816.808 
		-234.855,816.354 -234.628,815.898 -234.401,815.445 -234.174,814.99 -233.947,814.537 -233.72,814.082 -233.493,813.629 
		-233.266,813.173 -233.038,812.72 -232.811,812.265 -232.584,811.812 -232.357,811.356 -232.13,810.902 -231.903,810.447 
		-231.675,809.994 -231.448,809.539 -231.221,809.086 -230.994,808.63 -230.767,808.177 -230.54,807.722 -230.312,807.269 
		-230.085,806.813 -229.858,806.36 -229.631,805.904 -229.404,805.451 -229.177,804.996 -228.95,804.543 -228.723,804.088 
		-228.496,803.635 -228.269,803.179 -228.041,802.726 -227.814,802.271 -227.587,801.817 -227.36,801.361 -227.133,800.908 
		-226.905,800.453 -226.678,800 -226.451,799.545 -226.224,799.092 -225.997,798.636 -225.77,798.183 -225.542,797.728 
		-225.315,797.274 -225.088,796.819 -224.861,796.366 -224.634,795.91 -224.407,795.457 -224.18,795.002 -223.953,794.549 
		-223.726,794.094 -223.499,793.64 -223.271,793.185 -223.044,792.731 -222.817,792.276 -222.59,791.823 -222.363,791.367 
		-222.136,790.914 -221.908,790.459 -221.681,790.006 -221.454,789.551 -221.227,789.098 -221,788.642 -220.773,788.188 
		-220.545,787.733 -220.318,787.28 -220.091,786.825 -219.864,786.372 -219.637,785.916 -219.41,785.463 -219.183,785.008 
		-218.956,784.555 -218.729,784.099 -218.501,783.646 -218.274,783.19 -218.047,782.737 -217.82,782.282 -217.593,781.829 
		-217.366,781.373 -217.139,780.92 -216.911,780.465 -216.684,780.012 -216.457,779.557 -216.23,779.104 -216.003,778.647 
		-215.775,778.194 -215.548,777.739 -215.321,777.286 -215.094,776.831 -214.867,776.378 -214.64,775.922 -214.413,775.469 
		-214.186,775.014 -213.958,774.561 -213.731,774.104 -213.504,773.651 -213.277,773.196 -213.05,772.743 -212.823,772.288 
		-212.596,771.835 -212.369,771.379 -212.142,770.926 -211.914,770.471 -211.687,770.018 -211.46,769.562 -211.233,769.109 
		-211.006,768.653 -210.778,768.2 -210.551,767.745 -210.324,767.292 -210.097,766.837 -209.87,766.383 -209.643,765.928 
		-209.416,765.475 -209.188,765.02 -208.961,764.566 -208.734,764.11 -208.507,763.657 -208.28,763.202 -208.053,762.749 
		-207.826,762.294 -207.599,761.841 -207.372,761.385 -207.145,760.932 -206.917,760.477 -206.69,760.023 -206.463,759.568 
		-206.236,759.114 -206.009,758.659 -205.781,758.206 -205.554,757.751 -205.327,757.298 -205.1,756.842 -204.873,756.389 
		-204.646,755.934 -204.418,755.48 -204.191,755.025 -203.964,754.572 -203.737,754.116 -203.51,753.663 -203.283,753.208 
		-203.056,752.755 -202.829,752.3 -202.602,751.847 -202.375,751.391 -202.147,750.938 -201.92,750.482 -201.693,750.029 
		-201.466,749.574 -201.239,749.12 -201.012,748.665 -200.784,748.212 -200.557,747.757 -200.33,747.304 -200.103,746.848 
		-199.876,746.395 -199.648,745.939 -199.421,745.486 -199.194,745.031 -198.967,744.578 -198.74,744.122 -198.513,743.669 
		-198.286,743.214 -198.059,742.761 -197.832,742.306 -197.604,741.853 -197.377,741.396 -197.15,740.943 -196.923,740.488 
		-196.696,740.035 -196.469,739.579 -196.242,739.126 -196.015,738.671 -195.787,738.218 -195.56,737.763 -195.333,737.31 
		-195.106,736.854 -194.879,736.4 -194.651,735.945 -194.424,735.492 -194.197,735.037 -193.97,734.584 -193.743,734.128 
		-193.516,733.675 -193.289,733.22 -193.062,732.767 -192.834,732.312 -192.607,731.857 -192.38,731.402 -192.153,730.949 
		-191.926,730.494 -191.699,730.041 -191.472,729.585 -191.245,729.132 -191.017,728.677 -190.79,728.224 -190.563,727.769 
		-190.336,727.315 -190.109,726.859 -189.882,726.406 -189.654,725.951 -189.427,725.498 -189.2,725.043 -188.973,724.59 
		-188.746,724.134 -188.519,723.681 -188.292,723.226 -188.064,722.772 -187.837,722.317 -187.61,721.863 -187.383,721.408 
		-187.156,720.955 -186.929,720.5 -186.702,720.047 -186.475,719.591 -186.248,719.138 -186.02,718.683 -185.793,718.229 
		-185.566,717.774 -185.339,717.321 -185.112,716.865 -184.885,716.412 -184.657,715.957 -184.43,715.504 -184.203,715.049 
		-183.976,714.595 -183.749,714.14 -183.521,713.687 -183.294,713.231 -183.067,712.778 -182.84,712.322 -182.613,711.869 
		-182.386,711.414 -182.159,710.961 -181.932,710.506 -181.705,710.053 -181.478,709.597 -181.25,709.144 -181.023,708.688 
		-180.796,708.235 -180.569,707.78 -180.342,707.327 -180.115,706.871 -179.887,706.418 -179.66,705.963 -179.433,705.51 
		-179.206,705.054 -178.979,704.601 -178.752,704.146 -178.524,703.692 -178.297,703.237 -178.07,702.784 -177.843,702.328 
		-177.616,701.875 -177.389,701.42 -177.162,700.967 -176.935,700.512 -176.708,700.059 -176.48,699.603 -176.253,699.149 
		-176.026,698.694 -175.799,698.241 -175.572,697.786 -175.345,697.333 -175.118,696.877 -174.89,696.424 -174.663,695.969 
		-174.436,695.516 -174.209,695.06 -173.982,694.606 -173.754,694.151 -173.527,693.698 -173.3,693.243 -173.073,692.79 
		-172.846,692.334 -172.619,691.881 -172.392,691.426 -172.165,690.973 -171.938,690.518 -171.71,690.064 -171.483,689.608 
		-171.256,689.155 -171.029,688.7 -170.802,688.247 -170.575,687.792 -170.348,687.338 -170.121,686.883 -169.893,686.43 
		-169.666,685.975 -169.439,685.521 -169.212,685.065 -168.985,684.612 -168.757,684.157 -168.53,683.704 -168.303,683.249 
		-168.076,682.796 -167.849,682.34 -167.622,681.887 -167.395,681.432 -167.167,680.979 -166.94,680.523 -166.713,680.07 
		-166.486,679.614 -166.259,679.161 -166.032,678.706 -165.805,678.253 -165.578,677.797 -165.351,677.344 -165.123,676.889 
		-164.896,676.436 -164.669,675.98 -164.442,675.527 -164.215,675.071 -163.988,674.618 -163.76,674.163 -163.533,673.71 
		-163.306,673.255 -163.079,672.802 -162.852,672.346 -162.625,671.893 -162.397,671.438 -162.17,670.984 -161.943,670.529 
		-161.716,670.075 -161.489,669.62 -161.262,669.167 -161.035,668.712 -160.808,668.259 -160.581,667.803 -160.354,667.35 
		-160.126,666.895 -159.899,666.441 -159.672,665.986 -159.445,665.533 -159.218,665.077 -158.991,664.624 -158.763,664.169 
		-158.536,663.716 -158.309,663.261 -158.082,662.808 -157.855,662.352 -157.627,661.898 -157.4,661.443 -157.173,660.99 
		-156.946,660.534 -156.719,660.081 -156.492,659.626 -156.265,659.173 -156.038,658.718 -155.811,658.265 -155.583,657.809 
		-155.356,657.355 -155.129,656.9 -154.902,656.447 -154.675,655.992 -154.448,655.539 -154.221,655.083 -153.993,654.63 
		-153.766,654.175 -153.539,653.722 -153.312,653.267 -153.085,652.813 -152.858,652.357 -152.63,651.904 -152.403,651.449 
		-152.176,650.996 -151.949,650.54 -151.722,650.087 -151.495,649.632 -151.268,649.179 -151.041,648.724 -150.813,648.271 
		-150.586,647.814 -150.359,647.361 -150.132,646.906 -149.905,646.453 -149.678,645.998 -149.451,645.545 -149.224,645.089 
		-148.996,644.636 -148.769,644.181 -148.542,643.728 -148.315,643.272 -148.088,642.818 -147.861,642.363 -147.633,641.91 
		-147.406,641.455 -147.179,641.002 -146.952,640.546 -146.725,640.093 -146.498,639.638 -146.271,639.185 -146.043,638.729 
		-145.816,638.276 -145.589,637.82 -145.362,637.367 -145.135,636.912 -144.908,636.459 -144.681,636.004 -144.454,635.55 
		-144.227,635.095 -143.999,634.642 -143.772,634.187 -143.545,633.733 -143.318,633.277 -143.091,632.824 -142.863,632.369 
		-142.636,631.916 -142.409,631.461 -142.182,631.008 -141.955,630.552 -141.728,630.099 -141.5,629.644 -141.273,629.19 
		-141.046,628.735 -140.819,628.282 -140.592,627.826 -140.365,627.373 -140.138,626.918 -139.911,626.465 -139.684,626.009 
		-139.457,625.556 -139.229,625.101 -139.002,624.647 -138.775,624.192 -138.548,623.739 -138.321,623.283 -138.094,622.83 
		-137.866,622.375 -137.639,621.922 -137.412,621.467 -137.185,621.014 -136.958,620.558 -136.731,620.104 -136.503,619.649 
		-136.276,619.196 -136.049,618.741 -135.822,618.288 -135.595,617.832 -135.368,617.379 -135.141,616.924 -134.914,616.471 
		-134.687,616.015 -134.459,615.562 -134.232,615.106 -134.005,614.653 -133.778,614.198 -133.551,613.745 -133.324,613.289 
		-133.097,612.836 -132.869,612.381 -132.642,611.928 -132.415,611.473 -132.188,611.02 -131.961,610.563 -131.733,610.11 
		-131.506,609.655 -131.279,609.202 -131.052,608.747 -130.825,608.293 -130.598,607.838 -130.371,607.385 -130.144,606.93 
		-129.917,606.477 -129.689,606.021 -129.462,605.567 -129.235,605.112 -129.008,604.659 -128.781,604.204 -128.554,603.751 
		-128.327,603.295 -128.1,602.842 -127.872,602.387 -127.645,601.934 -127.418,601.479 -127.191,601.025 -126.964,600.569 
		-126.736,600.116 -126.509,599.661 -126.282,599.208 -126.055,598.753 -125.828,598.299 -125.601,597.844 -125.374,597.391 
		-125.146,596.936 -124.919,596.482 -124.692,596.026 -124.465,595.573 -124.238,595.118 -124.011,594.665 -123.784,594.21 
		-123.557,593.757 -123.33,593.301 -123.103,592.848 -122.875,592.393 -122.648,591.939 -122.421,591.484 -122.194,591.03 
		-121.967,590.575 -121.739,590.122 -121.512,589.667 -121.285,589.214 -121.058,588.758 -120.831,588.305 -120.604,587.85 
		-120.376,587.396 -120.149,586.941 -119.922,586.488 -119.695,586.032 -119.468,585.579 -119.241,585.124 -119.014,584.671 
		-118.787,584.216 -118.56,583.763 -118.333,583.307 -118.105,582.854 -117.878,582.398 -117.651,581.945 -117.424,581.489 
		-117.197,581.036 -116.97,580.581 -116.742,580.128 -116.515,579.673 -116.288,579.22 -116.061,578.764 -115.834,578.311 
		-115.606,577.855 -115.379,577.402 -115.152,576.947 -114.925,576.494 -114.698,576.038 -114.471,575.585 -114.244,575.13 
		-114.017,574.677 -113.79,574.222 -113.562,573.769 -113.335,573.312 -113.108,572.859 -112.881,572.404 -112.654,571.951 
		-112.427,571.495 -112.2,571.042 -111.972,570.587 -111.745,570.134 -111.518,569.679 -111.291,569.226 -111.064,568.77 
		-110.837,568.316 -110.609,567.861 -110.382,567.408 -110.155,566.953 -109.928,566.5 -109.701,566.044 -109.474,565.591 
		-109.247,565.136 -109.02,564.683 -108.792,564.228 -108.565,563.773 -108.338,563.318 -108.111,562.865 -107.884,562.41 
		-107.657,561.957 -107.43,561.501 -107.203,561.048 -106.975,560.593 -106.748,560.14 -106.521,559.685 -106.294,559.231 
		-106.067,558.775 -105.84,558.322 -105.612,557.867 -105.385,557.414 -105.158,556.959 -104.931,556.506 -104.704,556.05 
		-104.477,555.597 -104.25,555.142 -104.022,554.688 -103.795,554.232 -103.568,553.779 -103.341,553.324 -103.114,552.871 
		-102.887,552.416 -102.66,551.963 -102.433,551.507 -102.206,551.054 -101.978,550.599 -101.751,550.146 -101.524,549.69 
		-101.297,549.237 -101.07,548.781 -100.842,548.328 -100.615,547.873 -100.388,547.42 -100.161,546.965 -99.934,546.511 
		-99.707,546.056 -99.479,545.603 -99.252,545.147 -99.025,544.694 -98.798,544.238 -98.571,543.785 -98.344,543.33 
		-98.117,542.877 -97.89,542.422 -97.663,541.969 -97.436,541.513 -97.208,541.06 -96.981,540.604 -96.754,540.151 -96.527,539.696 
		-96.3,539.243 -96.073,538.787 -95.845,538.334 -95.618,537.879 -95.391,537.426 -95.164,536.97 -94.937,536.517 -94.71,536.062 
		-94.482,535.608 -94.255,535.153 -94.028,534.7 -93.801,534.244 -93.574,533.791 -93.347,533.336 -93.12,532.883 -92.893,532.428 
		-92.666,531.975 -92.438,531.519 -92.211,531.065 -91.984,530.61 -91.757,530.157 -91.53,529.702 -91.303,529.248 -91.076,528.793 
		-90.848,528.34 -90.621,527.885 -90.394,527.432 -90.167,526.976 -89.94,526.522 -89.712,526.067 -89.485,525.614 -89.258,525.159 
		-89.031,524.706 -88.804,524.25 -88.577,523.797 -88.35,523.342 -88.123,522.889 -87.896,522.434 -87.668,521.98 -87.441,521.524 
		-87.214,521.071 -86.987,520.616 -86.76,520.163 -86.533,519.707 -86.306,519.254 -86.078,518.799 -85.851,518.346 
		-85.624,517.891 -85.397,517.438 -85.17,516.981 -84.943,516.528 -84.715,516.073 -84.488,515.62 -84.261,515.165 -84.034,514.712 
		-83.807,514.256 -83.58,513.803 -83.353,513.348 -83.125,512.895 -82.898,512.439 -82.671,511.985 -82.444,511.53 -82.217,511.077 
		-81.99,510.622 -81.763,510.169 -81.536,509.713 -81.309,509.26 -81.081,508.805 -80.854,508.352 -80.627,507.896 -80.4,507.443 
		-80.173,506.987 -79.946,506.534 -79.718,506.079 -79.491,505.626 -79.264,505.171 -79.037,504.718 -78.81,504.262 
		-78.583,503.809 -78.355,503.354 -78.128,502.9 -77.901,502.444 -77.674,501.991 -77.447,501.536 -77.22,501.083 -76.993,500.628 
		-76.766,500.175 -76.539,499.719 -76.312,499.266 -76.084,498.811 -75.857,498.357 -75.63,497.902 -75.403,497.449 
		-75.176,496.993 -74.948,496.54 -74.721,496.085 -74.494,495.632 -74.267,495.177 -74.04,494.724 -73.813,494.268 -73.585,493.814 
		-73.358,493.359 -73.131,492.906 -72.904,492.45 -72.677,491.997 -72.45,491.542 -72.223,491.089 -71.996,490.634 -71.769,490.181 
		-71.542,489.725 -71.314,489.271 -71.087,488.816 -70.86,488.363 -70.633,487.908 -70.406,487.455 -70.179,486.999 
		-69.951,486.546 -69.724,486.091 -69.497,485.638 -69.27,485.183 -69.043,484.729 -68.816,484.273 -68.588,483.82 -68.361,483.365 
		-68.134,482.912 -67.907,482.456 -67.68,482.003 -67.453,481.548 -67.226,481.095 -66.999,480.64 -66.771,480.187 -66.544,479.73 
		-66.317,479.277 -66.09,478.822 -65.863,478.369 -65.636,477.914 -65.409,477.461 -65.182,477.005 -64.954,476.552 
		-64.727,476.097 -64.5,475.644 -64.273,475.188 -64.046,474.734 -63.818,474.279 -63.591,473.826 -63.364,473.371 -63.137,472.918 
		-62.91,472.462 -62.683,472.009 -62.456,471.554 -62.229,471.101 -62.001,470.646 -61.774,470.192 -61.547,469.736 -61.32,469.283 
		-61.093,468.828 -60.866,468.375 -60.639,467.92 -60.412,467.466 -60.185,467.011 -59.957,466.558 -59.73,466.103 -59.503,465.649 
		-59.276,465.193 -59.049,464.74 -58.821,464.285 -58.594,463.832 -58.367,463.377 -58.14,462.924 -57.913,462.468 -57.686,462.015 
		-57.458,461.56 -57.231,461.106 -57.004,460.651 -56.777,460.198 -56.55,459.742 -56.323,459.289 -56.096,458.834 -55.869,458.381 
		-55.642,457.925 -55.415,457.472 -55.188,457.017 -54.96,456.563 -54.733,456.108 -54.506,455.655 -54.279,455.199 
		-54.052,454.746 -53.824,454.291 -53.597,453.838 -53.37,453.383 -53.143,452.93 -52.916,452.474 -52.688,452.021 -52.461,451.565 
		-52.234,451.112 -52.007,450.657 -51.78,450.203 -51.553,449.748 -51.326,449.295 -51.099,448.84 -50.872,448.387 -50.645,447.931 
		-50.417,447.478 -50.19,447.022 -49.963,446.569 -49.736,446.114 -49.509,445.661 -49.282,445.205 -49.055,444.752 
		-48.827,444.297 -48.6,443.844 -48.373,443.389 -48.146,442.936 -47.919,442.479 -47.691,442.026 -47.464,441.571 -47.237,441.118 
		-47.01,440.663 -46.783,440.209 -46.556,439.754 -46.329,439.301 -46.102,438.846 -45.875,438.393 -45.647,437.937 -45.42,437.483 
		-45.193,437.028 -44.966,436.575 -44.739,436.12 -44.512,435.667 -44.285,435.211 -44.058,434.758 -43.83,434.303 -43.603,433.85 
		-43.376,433.395 -43.149,432.94 -42.922,432.485 -42.694,432.032 -42.467,431.577 -42.24,431.124 -42.013,430.668 -41.786,430.215 
		-41.559,429.76 -41.332,429.307 -41.104,428.852 -40.877,428.398 -40.65,427.942 -40.423,427.489 -40.196,427.034 -39.969,426.581 
		-39.742,426.126 -39.515,425.673 -39.288,425.217 -39.06,424.764 -38.833,424.309 -38.606,423.855 -38.379,423.4 -38.152,422.946 
		-37.925,422.491 -37.697,422.038 -37.47,421.583 -37.243,421.13 -37.016,420.674 -36.789,420.221 -36.562,419.766 -36.334,419.312 
		-36.107,418.857 -35.88,418.404 -35.653,417.948 -35.426,417.495 -34.199,417.04 -33.972,416.587 -33.745,416.132 -33.518,415.679 
		-33.291,415.223 -33.063,414.77 -32.836,414.314 -32.609,413.861 -32.382,413.405 -32.155,412.952 -31.928,412.497 -31.7,412.044 
		-31.473,411.589 -31.246,411.136 -31.019,410.68 -30.792,410.227 -30.564,409.771 -30.337,409.318 -30.11,408.863 -29.883,408.41 
		-29.656,407.954 -29.429,407.501 -29.202,407.046 -28.975,406.593 -28.748,406.138 -28.521,405.684 -28.293,405.229 
		-28.066,404.775 -27.839,404.32 -27.612,403.867 -27.385,403.411 -27.158,402.958 -26.93,402.503 -26.703,402.05 -26.476,401.595 
		-26.249,401.142 -26.022,400.686 -25.795,400.232 -25.567,399.777 -25.34,399.324 -25.113,398.869 -24.886,398.416 -24.659,397.96 
		-24.432,397.507 -24.205,397.052 -23.978,396.599 -23.75,396.143 -23.523,395.689 -23.296,395.234 -23.069,394.781 
		-22.842,394.326 -22.615,393.873 -22.388,393.417 -22.161,392.964 -21.933,392.509 -21.706,392.056 -21.479,391.601 
		-21.252,391.147 -21.025,390.691 -20.798,390.238 -20.57,389.783 -20.343,389.33 -20.116,388.875 -19.889,388.421 -19.662,387.966 
		-19.435,387.513 -19.208,387.058 -18.98,386.604 -18.753,386.148 -18.526,385.695 -18.299,385.24 -18.072,384.787 -17.845,384.332 
		-17.618,383.879 -17.391,383.423 -17.164,382.97 -16.936,382.515 -16.709,382.062 -16.482,381.606 -16.255,381.153 
		-16.028,380.697 -15.8,380.244 -15.573,379.789 -15.346,379.336 -15.119,378.88 -14.892,378.427 -14.665,377.972 -14.438,377.519 
		-14.21,377.063 -13.983,376.61 -13.756,376.154 -13.529,375.701 -13.302,375.246 -13.075,374.793 -12.848,374.338 -12.621,373.885 
		-12.394,373.429 -12.166,372.976 -11.939,372.521 -11.712,372.067 -11.485,371.612 -11.258,371.159 -11.031,370.703 
		-10.803,370.25 -10.576,369.795 -10.349,369.342 -10.122,368.886 -9.895,368.433 -9.668,367.978 -9.44,367.524 -9.213,367.069 
		-8.986,366.616 -8.759,366.16 -8.532,365.707 -8.305,365.252 -8.078,364.799 -7.851,364.344 -7.624,363.891 -7.396,363.435 
		-7.169,362.981 -6.942,362.526 -6.715,362.073 -6.488,361.618 -6.261,361.164 -6.034,360.709 -5.806,360.256 -5.579,359.801 
		-5.352,359.348 -5.125,358.892 -4.898,358.438 -4.67,357.983 -4.443,357.53 -4.216,357.075 -3.989,356.622 -3.762,356.166 
		-3.535,355.713 -3.308,355.258 -3.081,354.805 -2.854,354.35 -2.626,353.896 -2.399,353.44 -2.172,352.987 -1.945,352.532 
		-1.718,352.079 -1.491,351.623 -1.264,351.17 -1.036,350.715 -0.809,350.262 -0.582,349.807 -0.355,349.354 -0.128,348.897 
		0.099,348.444 0.327,347.989 0.554,347.536 0.781,347.081 1.008,346.628 1.235,346.172 1.462,345.719 1.689,345.264 1.917,344.811 
		2.144,344.355 2.371,343.901 2.598,343.446 2.825,342.993 3.052,342.538 3.279,342.085 3.506,341.629 3.733,341.176 3.961,340.721 
		4.188,340.268 4.415,339.812 4.642,339.359 4.869,338.903 5.097,338.45 5.324,337.995 5.551,337.542 5.778,337.087 6.005,336.634 
		6.232,336.178 6.459,335.725 6.687,335.27 6.914,334.816 7.141,334.36 7.368,333.907 7.595,333.452 7.822,332.999 8.049,332.544 
		8.276,332.091 	"/>
</g>
</svg>
